<?xml version="1.0" encoding="UTF-8"?>
<svg id="Layer_1" data-name="Layer 1" xmlns="http://www.w3.org/2000/svg" viewBox="0 0 199.31 228.49">
  <defs>
    <style>
      .cls-1 {
        fill: #fff;
      }

      .cls-2 {
        fill: #002a47;
      }

      .cls-3 {
        fill: #ffcb00;
      }
    </style>
  </defs>
  <g>
    <path class="cls-3" d="M99.65,16.13c-1.43,0-2.59-1.04-2.59-2.33V2.33c0-1.28,1.16-2.33,2.59-2.33s2.59,1.04,2.59,2.33V13.81c0,1.28-1.16,2.33-2.59,2.33h0Z"/>
    <path class="cls-3" d="M159.26,38.33c-.66,0-1.32-.23-1.83-.68-1.01-.91-1.01-2.38,0-3.29l9.03-8.12c1.01-.91,2.65-.91,3.66,0,1.01,.91,1.01,2.38,0,3.29l-9.03,8.12c-.51,.45-1.17,.68-1.83,.68Z"/>
    <path class="cls-3" d="M31.02,153.62c-.66,0-1.32-.23-1.83-.68-1.01-.91-1.01-2.38,0-3.29l9.03-8.12c1.01-.91,2.65-.91,3.66,0s1.01,2.38,0,3.29l-9.03,8.12c-.51,.45-1.17,.68-1.83,.68Z"/>
    <path class="cls-3" d="M196.72,91.91h-12.77c-1.43,0-2.59-1.04-2.59-2.33s1.16-2.33,2.59-2.33h12.77c1.43,0,2.59,1.04,2.59,2.33s-1.16,2.33-2.59,2.33Z"/>
    <path class="cls-3" d="M15.36,91.91H2.59c-1.43,0-2.59-1.04-2.59-2.33s1.16-2.33,2.59-2.33H15.36c1.43,0,2.59,1.04,2.59,2.33s-1.16,2.33-2.59,2.33Z"/>
    <path class="cls-3" d="M168.29,153.62c-.66,0-1.32-.23-1.83-.68l-9.03-8.12c-1.01-.91-1.01-2.38,0-3.29,1.01-.91,2.65-.91,3.66,0l9.03,8.12c1.01,.91,1.01,2.38,0,3.29-.51,.45-1.17,.68-1.83,.68Z"/>
    <path class="cls-3" d="M40.05,38.33c-.66,0-1.32-.23-1.83-.68l-9.03-8.12c-1.01-.91-1.01-2.38,0-3.29s2.65-.91,3.66,0l9.03,8.12c1.01,.91,1.01,2.38,0,3.29-.51,.45-1.17,.68-1.83,.68Z"/>
    <path class="cls-3" d="M132.21,22.01c-.33,0-.67-.06-1-.18-1.32-.5-1.94-1.86-1.39-3.04l4.93-10.59c.55-1.19,2.07-1.74,3.38-1.25,1.32,.5,1.94,1.86,1.39,3.04l-4.93,10.59c-.42,.89-1.38,1.43-2.39,1.43h0Z"/>
    <path class="cls-3" d="M177.66,63.18c-1.02,0-1.98-.54-2.39-1.44-.54-1.19,.09-2.55,1.41-3.03l11.82-4.35c1.32-.49,2.83,.08,3.37,1.27s-.09,2.55-1.41,3.03l-11.82,4.35c-.32,.12-.65,.17-.98,.17h0Z"/>
    <path class="cls-3" d="M9.84,125c-1.02,0-1.98-.54-2.39-1.44-.54-1.19,.09-2.55,1.41-3.03l11.82-4.35c1.32-.49,2.83,.08,3.37,1.27,.54,1.19-.09,2.55-1.41,3.03l-11.82,4.35c-.32,.12-.65,.17-.98,.17Z"/>
    <path class="cls-3" d="M189.19,125.62c-.33,0-.67-.06-1-.18l-11.78-4.43c-1.32-.5-1.94-1.86-1.39-3.04,.55-1.19,2.07-1.74,3.38-1.25l11.78,4.43c1.32,.5,1.94,1.86,1.39,3.04-.42,.89-1.38,1.43-2.39,1.43h0Z"/>
    <path class="cls-3" d="M21.9,62.65c-.33,0-.67-.06-1-.18l-11.78-4.43c-1.32-.5-1.94-1.86-1.39-3.04,.55-1.19,2.07-1.74,3.38-1.25l11.78,4.43c1.32,.5,1.94,1.86,1.39,3.04-.41,.89-1.38,1.43-2.39,1.43h.01Z"/>
    <path class="cls-3" d="M67.69,21.79c-1.02,0-1.98-.54-2.39-1.44l-4.84-10.62c-.54-1.19,.09-2.55,1.41-3.03,1.32-.49,2.83,.08,3.37,1.27l4.84,10.62c.54,1.19-.09,2.55-1.41,3.03-.32,.12-.65,.17-.98,.17Z"/>
  </g>
  <g>
    <path class="cls-2" d="M122.31,200.22h-43.69c-2.47,0-4.46-1.8-4.46-4.01h0c0-2.22,2-4.01,4.46-4.01h43.69c2.47,0,4.46,1.8,4.46,4.01h0c0,2.22-2,4.01-4.46,4.01Z"/>
    <path class="cls-2" d="M122.31,212.82h-43.69c-2.47,0-4.46-1.8-4.46-4.01h0c0-2.22,2-4.01,4.46-4.01h43.69c2.47,0,4.46,1.8,4.46,4.01h0c0,2.22-2,4.01-4.46,4.01Z"/>
    <path class="cls-2" d="M89.87,217.57c-1.08,0-1.9,.88-1.7,1.84,1.08,5.17,6.11,9.08,12.18,9.08s11.1-3.91,12.18-9.08c.2-.96-.62-1.84-1.7-1.84h-20.96Z"/>
    <path class="cls-3" d="M117.69,187.14h-35.08c-6.08,0-11.19-4.27-11.65-9.72-1.49-17.78-9.56-29.04-18.1-40.97-9.32-13.01-18.95-26.46-18.95-48.21,0-29.37,23.37-54.08,55.56-58.77,7.53-1.1,15.46-1.01,22.94,.25,31.28,5.26,53.98,29.87,53.98,58.52,0,21.75-9.64,35.2-18.95,48.21-8.55,11.93-16.62,23.19-18.1,40.97-.46,5.45-5.57,9.72-11.65,9.72Z"/>
    <path class="cls-1" d="M68.05,125.55c-1.33,0-2.64-.55-3.49-1.59-23.93-29.55-6.29-57.29-5.53-58.45,1.21-1.85,3.85-2.46,5.9-1.38s2.74,3.45,1.54,5.3c-.66,1.02-15.45,24.64,5.06,49.97,1.4,1.73,.98,4.15-.95,5.41-.77,.5-1.65,.74-2.53,.74Z"/>
  </g>
</svg>